<svg xmlns="http://www.w3.org/2000/svg" viewBox="0 0 1318.95 299.86"><defs><style>.a{fill:#ffc400;}.b{fill:#ff7e00;}.c{fill:#0057b6;}</style></defs><path class="a" d="M106.14,160.48c5-4.35,9.19-8.54,13.89-12.11,12.81-9.7,27-14.25,43.17-10.61,18.64,4.2,28.59,16.67,25.48,34.36-4.88,27.8-18.84,50.29-43.33,65.08-20.23,12.21-43.83,3.28-50-19.59-2.59-9.58-.59-20.33-1.37-30.49-.25-3.31-1.76-8-4.23-9.44-23.64-13.46-47.68-26.24-71.44-39.51-4.87-2.72-7.78-1.73-11.14,2.24A30.26,30.26,0,0,0,14.82,186a195.13,195.13,0,0,0,19.07,10.11c5.23,2.44,7,5.75,6.71,11.67C38,272.3,103.26,319.18,164.66,285.42q23.42-12.89,47.49-24.55c22.57-10.92,44.32-7.3,65.39,4.82,13.93,8,23.63,19.88,31.1,34.17,27.41-13.58,54.07-26.65,80.51-40.16,2.06-1.06,4-5.42,3.56-7.84-3.19-18.92-24.32-29.53-42.11-21.44-4.84,2.2-9.34,5.17-14.26,7.12-2.1.83-5.84,1-7.19-.3-16.35-15.53-34.69-27.52-56.83-32.59,1.79-13.33,5.95-21.25,21-25,56.37-13.89,92.41-73.38,81-130.33-2.3-11.52-9.63-18.7-20.67-22.1-15.55-4.79-26,4.44-34.12,11,2.22,14.62,6.32,27.17,5.53,39.41-1.55,24.12-14.84,41.66-37.59,50.49-23.22,9-44.32,4.07-62.5-12.78-29.08-27-62.61-35.83-100.6-23.84-25.13,7.94-44.95,23.47-60,46.34ZM318.24,14.83C315.77,7.6,311.91,5,304.61,8c-5.45,2.24-11.56,2.83-17.05,5-6.05,2.39-9.51.83-13.27-4.4C271.56,4.76,266.65,0,262.69,0c-32.42-.16-56,17.23-66.14,48.05-1,3.05-1,7.75.75,10.18,9.68,13.82,19.44,27.66,30.29,40.55,12.44,14.81,29.22,19.19,47.56,14,18-5.12,28.89-17.68,32.4-36.37,3.09-16.48-3.47-29.88-13.9-42.7ZM121.17,220.05c1.23,2.51,2.1,7.49,4.52,8.43,3.12,1.2,8.31.34,11.2-1.66,20.36-14.09,33.2-33.42,37.47-57.9.59-3.34-1-8.49-3.52-10.49-1.91-1.55-7.49-.62-10.16,1.14C139.3,173.68,127.22,194.09,121.17,220.05Z"></path><path class="b" d="M106.14,160.48,64.43,137.85c15-22.87,34.86-38.4,60-46.34,38-12,71.52-3.12,100.6,23.84,18.18,16.85,39.28,21.78,62.5,12.78,22.75-8.83,36-26.37,37.59-50.49.79-12.24-3.31-24.79-5.53-39.41,8.14-6.54,18.57-15.77,34.12-11,11,3.4,18.37,10.58,20.67,22.1,11.4,57-24.64,116.44-81,130.33-15.09,3.72-19.25,11.64-21,25,22.14,5.07,40.48,17.06,56.83,32.59,1.35,1.28,5.09,1.13,7.19.3,4.92-1.95,9.42-4.92,14.26-7.12,17.79-8.09,38.92,2.52,42.11,21.44.41,2.42-1.5,6.78-3.56,7.84-26.44,13.51-53.1,26.58-80.51,40.16-7.47-14.29-17.17-26.17-31.1-34.17-21.07-12.12-42.82-15.74-65.39-4.82q-24.06,11.64-47.49,24.55C103.26,319.18,38,272.3,40.6,207.73c.24-5.92-1.48-9.23-6.71-11.67A195.13,195.13,0,0,1,14.82,186a30.26,30.26,0,0,1-7.67-45.54c3.36-4,6.27-5,11.14-2.24,23.76,13.27,47.8,26.05,71.44,39.51,2.47,1.4,4,6.13,4.23,9.44.78,10.16-1.22,20.91,1.37,30.49,6.19,22.87,29.79,31.8,50,19.59,24.49-14.79,38.45-37.28,43.33-65.08,3.11-17.69-6.84-30.16-25.48-34.36-16.17-3.64-30.36.91-43.17,10.61C115.33,151.94,111.1,156.13,106.14,160.48Z"></path><path class="c" d="M318.24,14.83,293.65,33.71c10.43,12.82,17,26.22,13.9,42.7-3.51,18.69-14.36,31.25-32.4,36.37-18.34,5.19-35.12.81-47.56-14C216.74,85.89,207,72.05,197.3,58.23c-1.71-2.43-1.76-7.13-.75-10.18C206.7,17.23,230.27-.16,262.69,0c4,0,8.87,4.76,11.6,8.56,3.76,5.23,7.22,6.79,13.27,4.4,5.49-2.17,11.6-2.76,17.05-5C311.91,5,315.77,7.6,318.24,14.83Z"></path><path class="c" d="M121.17,220.05c6-26,18.13-46.37,39.51-60.48,2.67-1.76,8.25-2.69,10.16-1.14,2.48,2,4.11,7.15,3.52,10.49-4.27,24.48-17.11,43.81-37.47,57.9-2.89,2-8.08,2.86-11.2,1.66C123.27,227.54,122.4,222.56,121.17,220.05Z"></path><path class="c" d="M520,114.91q-1.53-15.69-11.39-23.4t-29.25-7.69q-18.16,0-27.4,6.15t-9.24,17.86q0,9.86,7.24,15.71t24.48,10.16q17.55,4.31,33.4,8.46a168.52,168.52,0,0,1,27.25,9.39,84.84,84.84,0,0,1,12.63,7.09,42.38,42.38,0,0,1,10.16,9.85,46.21,46.21,0,0,1,6.77,13.85,64.23,64.23,0,0,1,2.46,18.79q0,16.94-6,29.09a54.58,54.58,0,0,1-16.94,20.17,74.89,74.89,0,0,1-25.86,11.85,131.1,131.1,0,0,1-32.79,3.85,135.91,135.91,0,0,1-34.79-4.15,76.92,76.92,0,0,1-27.1-12.78,61.13,61.13,0,0,1-17.86-21.4q-6.47-12.78-6.77-30h41.26q.61,15.7,12.78,24.78t32.79,9.09q19.08,0,29.4-7.55t10.32-21.39a23.68,23.68,0,0,0-1.39-8.32,18.18,18.18,0,0,0-4.92-6.93,34.59,34.59,0,0,0-9.7-5.85,94.84,94.84,0,0,0-15.71-4.77q-19.1-4.31-32.17-7.54a135.91,135.91,0,0,1-23.86-8.16q-16.63-7.4-25.41-19.24t-8.77-31.26a67.81,67.81,0,0,1,4.62-25.4,51.92,51.92,0,0,1,14-19.86,65.88,65.88,0,0,1,23.4-12.93q14-4.62,32.79-4.62,19.39,0,34.48,4.93a72.84,72.84,0,0,1,25.4,13.85,62.58,62.58,0,0,1,16,21.25,71,71,0,0,1,6.32,27.09Z"></path><path class="c" d="M673.3,259a61.46,61.46,0,0,1-2.46-13.55,49.45,49.45,0,0,1-18.78,12.78Q640.36,263,625,263q-26.18,0-38.33-11.54t-12.16-30q0-16.32,5.23-26a39,39,0,0,1,14.47-15.24,69.74,69.74,0,0,1,22-8.16q12.76-2.61,27.86-4.77t20.33-5.7Q669.6,158,669.61,150q0-7.38-6.93-11.54t-18.63-4.16q-13.84,0-19.86,6.16t-7.54,16.32H579.39a68.86,68.86,0,0,1,3.85-21.55,41.32,41.32,0,0,1,11.4-16.94q7.85-7.08,20.47-10.93t30.79-3.85q17.85,0,30.33,4t20,11.55a44,44,0,0,1,10.93,18.78,88,88,0,0,1,3.39,25.4V259Zm-2.77-74.2a21.64,21.64,0,0,1-8.93,4.92,162,162,0,0,1-16.93,4q-17.25,3.39-23.71,8.62t-6.46,15.08q0,17,19.39,16.94a38.53,38.53,0,0,0,14.32-2.62,34.91,34.91,0,0,0,19.09-17.55,28.78,28.78,0,0,0,2.92-12.78Z"></path><path class="c" d="M825.1,259V167.26q0-17.55-5.85-23.71t-20-6.16q-31.1,0-31.1,34.79V259h-40V107.52h38.18v22.17a48.68,48.68,0,0,1,18.78-19.55q11.7-6.61,30.17-6.62a60.09,60.09,0,0,1,20,3.24,42.33,42.33,0,0,1,15.85,9.69,46.59,46.59,0,0,1,10.47,15.86A56.84,56.84,0,0,1,865.43,154V259Z"></path><path class="c" d="M883.9,89.36V52.1h40V89.36Zm0,169.65V107.52h40V259Z"></path><path class="c" d="M1028,159.25h37.26v43.11a74,74,0,0,1-3.54,22.94,53.69,53.69,0,0,1-11.09,19.39,52.86,52.86,0,0,1-19.08,13.4Q1020,263,1004,263q-16.63,0-28.33-4.92a53.48,53.48,0,0,1-19.24-13.24,50.25,50.25,0,0,1-10.93-19.4,79.58,79.58,0,0,1-3.39-23.4V66.57H981.5v41h83.75v28.33H981.5v62.2q0,14.47,5.39,22.32t17.7,7.85q12,0,17.71-7.7t5.69-21.86Z"></path><path class="c" d="M1176.4,259a61.43,61.43,0,0,1-2.47-13.55,49.45,49.45,0,0,1-18.78,12.78q-11.7,4.77-27.09,4.77-26.18,0-38.34-11.54t-12.16-30q0-16.32,5.24-26a38.88,38.88,0,0,1,14.47-15.24,69.58,69.58,0,0,1,22-8.16q12.78-2.61,27.87-4.77t20.32-5.7q5.23-3.54,5.23-11.55,0-7.38-6.93-11.54c-4.61-2.77-10.83-4.16-18.62-4.16q-13.86,0-19.86,6.16t-7.55,16.32h-37.25a68.29,68.29,0,0,1,3.85-21.55,41.2,41.2,0,0,1,11.39-16.94q7.85-7.08,20.47-10.93t30.79-3.85q17.87,0,30.33,4t20,11.55a44.11,44.11,0,0,1,10.94,18.78,88.35,88.35,0,0,1,3.38,25.4V259Zm-2.77-74.2a21.77,21.77,0,0,1-8.93,4.92,162.89,162.89,0,0,1-16.94,4q-17.25,3.39-23.71,8.62t-6.46,15.08q0,17,19.4,16.94a38.48,38.48,0,0,0,14.31-2.62,34.82,34.82,0,0,0,19.09-17.55,28.79,28.79,0,0,0,2.93-12.78Z"></path><path class="c" d="M1231.2,259V107.52h37.56v18.17a49.19,49.19,0,0,1,10.32-12,44.64,44.64,0,0,1,11.08-6.62,42.44,42.44,0,0,1,11.55-2.92,114.77,114.77,0,0,1,12-.62H1319v41a67.89,67.89,0,0,0-11.08-.92q-36.64,0-36.64,36.64V259Z"></path><polygon class="b" points="1186.95 32.83 1158.8 32.83 1158.8 5 1127.77 5 1127.77 32.83 1099.94 32.83 1099.94 63.86 1127.77 63.86 1127.77 92.02 1158.8 92.02 1158.8 63.86 1186.95 63.86 1186.95 32.83"></polygon></svg>